<?xml version="1.0" encoding="UTF-8" standalone="no"?>
<!-- Created with Inkscape (http://www.inkscape.org/) -->

<svg
   xmlns:dc="http://purl.org/dc/elements/1.1/"
   xmlns:cc="http://creativecommons.org/ns#"
   xmlns:rdf="http://www.w3.org/1999/02/22-rdf-syntax-ns#"
   xmlns:svg="http://www.w3.org/2000/svg"
   xmlns="http://www.w3.org/2000/svg"
   xmlns:sodipodi="http://sodipodi.sourceforge.net/DTD/sodipodi-0.dtd"
   xmlns:inkscape="http://www.inkscape.org/namespaces/inkscape"
   height="12.947797"
   width="21.99999"
   viewBox="0 0 21.99999 12.947797"
   id="svg3305"
   version="1.1"
   inkscape:version="0.91 r13725"
   sodipodi:docname="main-menu.svg">
  <defs
     id="defs3311" />
  <sodipodi:namedview
     pagecolor="#ffffff"
     bordercolor="#666666"
     borderopacity="1"
     objecttolerance="10"
     gridtolerance="10"
     guidetolerance="10"
     inkscape:pageopacity="0"
     inkscape:pageshadow="2"
     inkscape:window-width="1920"
     inkscape:window-height="1029"
     id="namedview3309"
     showgrid="false"
     fit-margin-top="0"
     fit-margin-left="0"
     fit-margin-right="0"
     fit-margin-bottom="0"
     units="px"
     inkscape:zoom="10.148731"
     inkscape:cx="-0.54890144"
     inkscape:cy="-7.1240844"
     inkscape:window-x="1920"
     inkscape:window-y="327"
     inkscape:window-maximized="1"
     inkscape:current-layer="svg3305" />
  <metadata
     id="metadata3307">
    <rdf:RDF>
      <cc:Work
         rdf:about="">
        <dc:format>image/svg+xml</dc:format>
        <dc:type
           rdf:resource="http://purl.org/dc/dcmitype/StillImage" />
        <dc:title></dc:title>
      </cc:Work>
    </rdf:RDF>
  </metadata>
  <g
     style="font-style:normal;font-weight:normal;font-size:18.0143261px;line-height:50%;font-family:sans-serif;letter-spacing:3.96315193px;word-spacing:0px;fill:#ffffff;fill-opacity:1;stroke:none;stroke-width:1px;stroke-linecap:butt;stroke-linejoin:miter;stroke-opacity:1"
     id="text3300"
     transform="translate(-118.3157,-82.709337)">
    <path
       d="m 118.3157,84.679654 q 0,-0.809237 0.56294,-1.389777 0.58054,-0.58054 1.40737,-0.58054 0.80924,0 1.38978,0.58054 0.58054,0.58054 0.58054,1.389777 0,0.82683 -0.58054,1.407369 -0.58054,0.562948 -1.38978,0.562948 -0.82683,0 -1.40737,-0.562948 -0.56294,-0.580539 -0.56294,-1.407369 z"
       style="font-style:normal;font-variant:normal;font-weight:normal;font-stretch:normal;font-size:18.0143261px;line-height:50%;font-family:NiseSegaSonic;-inkscape-font-specification:'NiseSegaSonic, Normal';text-align:start;letter-spacing:3.96315193px;writing-mode:lr-tb;text-anchor:start;fill:#ffffff"
       id="path3372"
       inkscape:connector-curvature="0" />
    <path
       d="m 127.34538,84.679654 q 0,-0.809237 0.56295,-1.389777 0.58054,-0.58054 1.40736,-0.58054 0.80924,0 1.38978,0.58054 0.58054,0.58054 0.58054,1.389777 0,0.82683 -0.58054,1.407369 -0.58054,0.562948 -1.38978,0.562948 -0.82682,0 -1.40736,-0.562948 -0.56295,-0.580539 -0.56295,-1.407369 z"
       style="font-style:normal;font-variant:normal;font-weight:normal;font-stretch:normal;font-size:18.0143261px;line-height:50%;font-family:NiseSegaSonic;-inkscape-font-specification:'NiseSegaSonic, Normal';text-align:start;letter-spacing:3.96315193px;writing-mode:lr-tb;text-anchor:start;fill:#ffffff"
       id="path3374"
       inkscape:connector-curvature="0" />
    <path
       d="m 136.37506,84.679654 q 0,-0.809237 0.56295,-1.389777 0.58054,-0.58054 1.40737,-0.58054 0.80923,0 1.38977,0.58054 0.58054,0.58054 0.58054,1.389777 0,0.82683 -0.58054,1.407369 -0.58054,0.562948 -1.38977,0.562948 -0.82683,0 -1.40737,-0.562948 -0.56295,-0.580539 -0.56295,-1.407369 z"
       style="font-style:normal;font-variant:normal;font-weight:normal;font-stretch:normal;font-size:18.0143261px;line-height:50%;font-family:NiseSegaSonic;-inkscape-font-specification:'NiseSegaSonic, Normal';text-align:start;letter-spacing:3.96315193px;writing-mode:lr-tb;text-anchor:start;fill:#ffffff"
       id="path3376"
       inkscape:connector-curvature="0" />
    <path
       d="m 118.3157,93.686817 q 0,-0.809237 0.56294,-1.389777 0.58054,-0.58054 1.40737,-0.58054 0.80924,0 1.38978,0.58054 0.58054,0.58054 0.58054,1.389777 0,0.82683 -0.58054,1.407369 -0.58054,0.562948 -1.38978,0.562948 -0.82683,0 -1.40737,-0.562948 -0.56294,-0.580539 -0.56294,-1.407369 z"
       style="font-style:normal;font-variant:normal;font-weight:normal;font-stretch:normal;font-size:18.0143261px;line-height:50%;font-family:NiseSegaSonic;-inkscape-font-specification:'NiseSegaSonic, Normal';text-align:start;letter-spacing:3.96315193px;writing-mode:lr-tb;text-anchor:start;fill:#ffffff"
       id="path3378"
       inkscape:connector-curvature="0" />
    <path
       d="m 127.34538,93.686817 q 0,-0.809237 0.56295,-1.389777 0.58054,-0.58054 1.40736,-0.58054 0.80924,0 1.38978,0.58054 0.58054,0.58054 0.58054,1.389777 0,0.82683 -0.58054,1.407369 -0.58054,0.562948 -1.38978,0.562948 -0.82682,0 -1.40736,-0.562948 -0.56295,-0.580539 -0.56295,-1.407369 z"
       style="font-style:normal;font-variant:normal;font-weight:normal;font-stretch:normal;font-size:18.0143261px;line-height:50%;font-family:NiseSegaSonic;-inkscape-font-specification:'NiseSegaSonic, Normal';text-align:start;letter-spacing:3.96315193px;writing-mode:lr-tb;text-anchor:start;fill:#ffffff"
       id="path3380"
       inkscape:connector-curvature="0" />
    <path
       d="m 136.37506,93.686817 q 0,-0.809237 0.56295,-1.389777 0.58054,-0.58054 1.40737,-0.58054 0.80923,0 1.38977,0.58054 0.58054,0.58054 0.58054,1.389777 0,0.82683 -0.58054,1.407369 -0.58054,0.562948 -1.38977,0.562948 -0.82683,0 -1.40737,-0.562948 -0.56295,-0.580539 -0.56295,-1.407369 z"
       style="font-style:normal;font-variant:normal;font-weight:normal;font-stretch:normal;font-size:18.0143261px;line-height:50%;font-family:NiseSegaSonic;-inkscape-font-specification:'NiseSegaSonic, Normal';text-align:start;letter-spacing:3.96315193px;writing-mode:lr-tb;text-anchor:start;fill:#ffffff"
       id="path3382"
       inkscape:connector-curvature="0" />
  </g>
</svg>
