<?xml version="1.0" encoding="UTF-8" standalone="no"?>
<svg id="svg3309" xmlns:rdf="http://www.w3.org/1999/02/22-rdf-syntax-ns#" xmlns="http://www.w3.org/2000/svg" height="5.817mm" width="6.7733mm" version="1.1" xmlns:cc="http://creativecommons.org/ns#" xmlns:xlink="http://www.w3.org/1999/xlink" viewBox="0 0 23.999999 20.611327" xmlns:dc="http://purl.org/dc/elements/1.1/">
 <defs>
  <circle id="XMLID_7_" cx="48" cy="48" r="32.5"/>
 </defs>
 <g id="XMLID_1_" transform="matrix(.36923 0 0 .36923 -5.7226 -5.7231)">
  <path id="XMLID_3_" d="m859.65 7a12 12 0 0 0 -12 12 12 12 0 0 0 3.3945 8.3633c1.1187-2.1943 4.0522-2.7229 6.2109-2.8438l0.33594-1.1387c-1.7355-0.93145-3-3.0275-3-4.9355-0.55385 0.000001-0.73828-0.40495-0.73828-0.92187v-2.1055c0-0.51692 0.73828-0.55274 0.73828-0.55274v-1.957c0-1.5138 1.0719-2.7324 4.875-2.7324s4.873 1.2186 4.873 2.7324v1.957s0.73828 0.07292 0.73828 0.58984v2.0684c0 0.51692-0.18444 0.92187-0.73828 0.92187 0 1.899-1.2887 4.0292-3.0508 4.9551l0.37109 1.1113c2.2485 0.11416 5.3402 0.668 6.3477 3.0996a12 12 0 0 0 3.64 -8.611 12 12 0 0 0 -12 -12z" transform="matrix(2.7083 0 0 2.7083 -2280.2 -3.4583)" fill="#fff"/>
  <g id="XMLID_8_">
   <clipPath id="XMLID_23_">
    <use id="use4285" xlink:href="#XMLID_7_" height="100%" width="100%" y="0" x="0"/>
   </clipPath>
  </g>
 </g>
</svg>
